
<svg version="1.1" id="Layer_1" xmlns="http://www.w3.org/2000/svg" xmlns:xlink="http://www.w3.org/1999/xlink" x="0px" y="0px"
	 viewBox="0 0 96 96" style="enable-background:new 0 0 96 96;" xml:space="preserve" width="96" height="96">
	 <style  type="text/css">
		
		@keyframes fadeinout {
			0%,100% { opacity: .5; }
			50% { opacity: 1; }
		}
		@-moz-keyframes fadeinout {
			0%,100% { opacity: .5; }
			50% { opacity: 1; }
		}
		@supports (-moz-appearance:none) { /*FF only*/
			#flame{
				-moz-animation: fadeinout 2s ease-in-out infinite;
				animation: fadeinout 2s ease-in-out infinite;
			}
		}
	 </style>
<g>
	<circle cx="48" cy="48" r="46.5"/>
	<path d="M48,2c25.4,0,46,20.6,46,46S73.4,94,48,94S2,73.4,2,48S22.6,2,48,2 M48,1C22,1,1,22,1,48s21,47,47,47s47-21,47-47
		S74,1,48,1L48,1z"/>
</g>
<path style="fill:#FF8800;" id="flame" d="M34.9,38.8c-1.6,3.7-1.5,7.1,0,10.5c1.2,2.5,3.6,5.4,5.4,6.1c-0.4-0.5-0.8-0.9-1.3-1.4
	c-4.1-4.5-4.5-9.6-2.3-15.1c1.4-3.5,3.8-6.2,6.2-9.1c2.1-2.6,4.4-5.2,6.2-8c3.6-5.5,3.2-10.5-0.8-15.8c1.1,0.7,2.2,1.4,3.3,2.2
	c3.6,2.9,6.3,6.4,7.5,10.9c1.3,4.6,0.3,8.8-2.9,12.4c-1.3,1.5-2.7,2.8-3.9,4.3c-1.9,2.2-3.3,4.7-3.2,7.7c0,1,0.3,1.9,0.6,2.9
	c-0.2-5.1,1.8-9,6.2-11.7c2.3-1.4,4.9-2.1,7.9-1.4c-4.5,0.8-6.9,3.7-7.4,8.4c-0.3,3.4,0.6,6.4,2.9,8.9c1.3,1.5,2.7,3,4,4.5
	c3.2,3.8,3.3,9.8-1.7,13.3c-0.3,0.2-0.5,0.4-0.7,0.7c1.6-0.4,3-1.2,4-2.6c2.2-3.3,2.6-6.9,0.8-10.5c-0.9-1.7-1.9-3.3-2.8-5
	c-0.9-1.6-1.2-3.4-0.9-5.2c0.1-0.7,0.4-1.4,0.7-2c-0.4,2.3,0.3,4.3,1.6,6.1c1.7,2.3,3.5,4.5,5.3,6.7c6.6,8,4,16.6-0.5,22.3
	c-4.3,5.5-10.2,8-16.8,9.1c-9.3,1.5-17.5-1.4-23.6-8.5c-4.7-5.4-6.7-12-4.8-19.3c0.6-2.3,1.9-4.3,3.8-6.1c-1.3,3.8,0.6,6.3,3,8.6
	c0.7,0.6,1.5,1.1,2.2,1.6c1.2,1,2.5,1.8,3.5,2.9c1.7,1.8,2.1,3.9,0.9,6.2c-0.1,0.1-0.1,0.3-0.3,0.7c1.2-0.9,1.7-2,1.8-3.2
	c0.1-1.9-0.7-3.6-1.7-5.1c-1.7-2.5-3.6-4.9-5.1-7.6c-3.5-6.3-2.5-13.8,2.3-19.1C34.5,39.1,34.6,39,34.9,38.8z"/>
</svg>
